Coordinates
version=1
nRows=17
nColumns=40
inDegrees=yes

Units are S.I. units (second, meters, Newtons, ...)
Angles are in degrees.

endheader
time	pelvis_tilt	pelvis_list	pelvis_rotation	pelvis_tx	pelvis_ty	pelvis_tz	hip_flexion_r	hip_adduction_r	hip_rotation_r	knee_angle_r	knee_angle_r_beta	ankle_angle_r	subtalar_angle_r	mtp_angle_r	hip_flexion_l	hip_adduction_l	hip_rotation_l	knee_angle_l	knee_angle_l_beta	ankle_angle_l	subtalar_angle_l	mtp_angle_l	lumbar_extension	lumbar_bending	lumbar_rotation	arm_flex_r	arm_add_r	arm_rot_r	elbow_flex_r	pro_sup_r	wrist_flex_r	wrist_dev_r	arm_flex_l	arm_add_l	arm_rot_l	elbow_flex_l	pro_sup_l	wrist_flex_l	wrist_dev_l
     42.70750000	     -2.59206344	     -3.82993160	     -3.28321046	      0.89362069	      0.91677702	      0.39692368	     24.31899988	     -7.31751360	      0.20047067	     63.67471886	     63.67471886	      4.59249126	    -15.06917522	      0.51295610	     19.41517729	     -0.23052237	     -0.99407404	     32.31385411	     32.31385411	     18.40439606	    -16.21619799	      5.06228999	    -10.21271408	      6.46662038	      3.31238954	     11.62529546	    -11.84962247	     -7.67701183	     28.01392706	     46.88386866	      0.00000000	      0.00000000	     18.03749401	    -13.57822338	     13.17680306	     41.36704787	     45.00693707	      0.00000000	      0.00000000
     42.73157143	     -2.43264765	     -3.88684563	     -3.82593052	      0.89454650	      0.91522914	      0.39508144	     25.52894814	     -7.11005101	      0.51722387	     63.06493738	     63.06493738	      5.30121901	    -14.83564951	     -0.01232660	     19.21161202	     -0.18933094	     -1.25999888	     33.11739346	     33.11739346	     18.99828062	    -16.61650147	      4.96522295	    -10.36095926	      6.83525480	      3.30547090	      7.61326625	    -12.37151927	     -7.87722514	     26.01365436	     46.94600818	      0.00000000	      0.00000000	     19.90101216	    -14.02890814	     12.42795705	     42.82616041	     45.12932368	      0.00000000	      0.00000000
     42.75564286	     -2.31629786	     -3.98285322	     -4.44754557	      0.89532246	      0.91433147	      0.39392095	     26.47883255	     -6.80812663	      0.68859601	     61.34585444	     61.34585444	      6.01707025	    -14.51180117	     -1.00770528	     18.87150988	     -0.25373565	     -1.61605358	     33.59834328	     33.59834328	     19.59413763	    -16.85794281	      5.17123614	    -10.52157933	      7.17309332	      3.29804103	      3.77953425	    -12.78196936	     -8.13063949	     24.26103562	     47.00503713	      0.00000000	      0.00000000	     21.64683753	    -14.54248003	     11.47180699	     44.57412781	     45.27366177	      0.00000000	      0.00000000
     42.77971429	     -2.31264410	     -4.14247780	     -5.15005412	      0.89584206	      0.91397877	      0.39346418	     27.20859362	     -6.41111800	      0.66529056	     58.56510879	     58.56510879	      6.66417551	    -13.92883995	     -2.43646617	     18.51714099	     -0.45762138	     -2.04581441	     33.82321829	     33.82321829	     20.11465236	    -17.03055762	      5.51886115	    -10.62563022	      7.50778195	      3.20120224	      0.17138589	    -13.12036310	     -8.40933584	     22.95229847	     47.05022731	      0.00000000	      0.00000000	     23.24885101	    -15.15822307	     10.36249069	     46.47607486	     45.42885533	      0.00000000	      0.00000000
     42.80378571	     -2.45783682	     -4.27352273	     -5.92504673	      0.89609148	      0.91414629	      0.39364378	     27.59428726	     -5.99924079	      0.49621275	     54.42993079	     54.42993079	      5.46419175	    -14.18377325	     -8.67562355	     18.17744953	     -0.68444058	     -2.51233035	     33.77608802	     33.77608802	     20.88039302	    -16.98252472	      6.81216333	    -10.61869166	      7.77334994	      2.48247850	     -3.09841982	    -13.22240783	     -9.50899129	     23.01622710	     47.10370792	      0.00000000	      0.00000000	     23.90497803	    -15.95028595	      7.30019880	     49.43695865	     45.82417022	      0.00000000	      0.00000000
     42.82785714	     -2.63201103	     -4.49504462	     -6.78552254	      0.89613744	      0.91484311	      0.39457314	     27.78095753	     -5.41653523	      0.20954458	     49.88378158	     49.88378158	      5.74750195	    -12.91394266	    -10.03619991	     17.71646475	     -1.09793698	     -3.12044098	     33.43876000	     33.43876000	     21.01919300	    -17.06921844	      6.82766552	    -10.62627195	      8.06437523	      2.29697479	     -6.17139159	    -13.46551974	     -9.92830990	     22.67880460	     47.11752902	      0.00000000	      0.00000000	     25.23095196	    -16.71180949	      6.07698843	     51.29774870	     46.00274377	      0.00000000	      0.00000000
     42.85192857	     -2.94122202	     -4.71591823	     -7.68142759	      0.89597387	      0.91590858	      0.39615030	     27.78250216	     -4.68684582	     -0.04366166	     44.85496413	     44.85496413	      6.17657618	    -11.13349536	     -9.70721377	     17.23813972	     -1.56707880	     -3.77661465	     32.79833418	     32.79833418	     21.09650837	    -17.04410613	      6.93282099	    -10.42099075	      8.33500499	      1.88354588	     -8.52404713	    -13.61030269	    -10.03224227	     22.02063385	     47.13061856	      0.00000000	      0.00000000	     26.57523758	    -17.69446418	      5.51463785	     52.20815498	     46.07677287	      0.00000000	      0.00000000
     42.87600000	     -3.08236183	     -4.84324023	     -8.63756914	      0.89577098	      0.91740653	      0.39820098	     27.36866798	     -4.16045449	     -0.57357029	     39.65980674	     39.65980674	      6.50323225	     -8.16015381	     -8.85429411	     16.46820369	     -1.96378245	     -4.61815647	     31.96149224	     31.96149224	     20.98315012	    -16.98608487	      6.65220912	    -10.58242161	      8.38385680	      1.79872678	    -11.33897199	    -13.67470136	    -10.71833070	     23.55404747	     47.07362913	      0.00000000	      0.00000000	     27.36266294	    -18.32292352	      3.46130046	     55.17410588	     46.32813983	      0.00000000	      0.00000000
     42.90007143	     -3.38550720	     -4.99983126	     -9.55060388	      0.89544432	      0.91887453	      0.40080050	     26.87764489	     -3.39540841	     -0.87402271	     34.44029084	     34.44029084	      6.24503552	     -5.71039578	     -7.78587624	     15.82520509	     -2.41463877	     -5.36697727	     31.04707766	     31.04707766	     20.96452605	    -16.87777862	      6.77489697	    -10.38808809	      8.47010255	      1.54387952	    -12.97349125	    -13.63683588	    -10.81680905	     23.28767915	     47.07379588	      0.00000000	      0.00000000	     28.55033806	    -19.08534984	      2.93395674	     56.07699543	     46.39798167	      0.00000000	      0.00000000
     42.92414286	     -3.49628305	     -5.00219490	    -10.45485354	      0.89516945	      0.92040799	      0.40360499	     26.38752758	     -3.01067747	     -1.58875124	     30.22328660	     30.22328660	      7.21453402	     -1.60063724	     -3.05590586	     14.89304220	     -2.69747923	     -6.33162950	     29.93832556	     29.93832556	     20.54419350	    -16.71836222	      5.79668922	    -10.54640798	      8.35448970	      1.28200563	    -15.06868476	    -13.52409793	    -11.51527747	     25.87563843	     46.95590744	      0.00000000	      0.00000000	     28.97130027	    -19.62439789	      0.67376265	     58.99571825	     46.66221516	      0.00000000	      0.00000000
     42.94821429	     -3.70073360	     -5.01697945	    -11.26084175	      0.89488091	      0.92175938	      0.40677680	     25.83942481	     -2.43815217	     -1.89565947	     26.23732961	     26.23732961	      6.56567493	      0.83122099	     -1.65018633	     14.10922815	     -2.97601202	     -7.11033250	     28.93653774	     28.93653774	     20.51444284	    -16.48699637	      5.86210841	    -10.41323065	      8.24666303	      1.14164506	    -15.93483824	    -13.29324541	    -11.54055350	     25.90398069	     46.94215189	      0.00000000	      0.00000000	     30.02716180	    -20.09705283	      0.28603687	     59.80347008	     46.71748109	      0.00000000	      0.00000000
     42.97228571	     -3.76839477	     -4.96956958	    -11.99540731	      0.89462111	      0.92302156	      0.41006444	     25.35400123	     -2.07533965	     -2.38434536	     23.27306122	     23.27306122	      6.07258194	      3.50018620	      0.01693725	     13.16979070	     -3.15590941	     -7.94240301	     27.89789083	     27.89789083	     20.45819157	    -16.16512533	      5.72249125	    -10.46414990	      8.04590693	      1.08197686	    -16.56133479	    -12.99966455	    -11.63122842	     26.48413357	     46.90911230	      0.00000000	      0.00000000	     30.90891132	    -20.39220925	     -0.29362588	     60.96053061	     46.79206270	      0.00000000	      0.00000000
     42.99635714	     -3.97331473	     -4.79888138	    -12.64900692	      0.89432502	      0.92370152	      0.41334625	     25.47686640	     -1.98429913	     -3.13059627	     21.82458420	     21.82458420	      6.77787697	      6.46743543	      4.47790672	     12.45736876	     -3.22276902	     -8.74286202	     26.89749655	     26.89749655	     19.90890685	    -16.00919091	      4.31221154	    -10.40264583	      7.80451162	      0.70750305	    -17.51244438	    -12.71567062	    -11.96873264	     29.74253158	     46.74420594	      0.00000000	      0.00000000	     30.82630725	    -20.48024045	     -2.37075754	     63.70880795	     47.01688990	      0.00000000	      0.00000000
     43.02042857	     -4.08030095	     -4.74210469	    -13.19958256	      0.89412287	      0.92443516	      0.41690443	     25.25693951	     -1.65192588	     -3.22651237	     20.46913735	     20.46913735	      6.17178854	      7.69378713	      5.28496569	     11.68588101	     -3.36360382	     -9.35441468	     26.06205540	     26.06205540	     19.91428071	    -15.76873525	      4.25196818	    -10.36676311	      7.65412074	      0.66650383	    -17.28402614	    -12.34917063	    -11.82986903	     30.21564645	     46.70706627	      0.00000000	      0.00000000	     31.55398640	    -20.43952906	     -2.65846562	     64.35432912	     47.05939848	      0.00000000	      0.00000000
     43.04450000	     -4.40325884	     -4.64385472	    -13.66300916	      0.89375569	      0.92431104	      0.42059238	     25.55661340	     -1.34905481	     -3.08044787	     20.12109408	     20.12109408	      5.70092400	      8.25413222	      5.49868771	     11.41330523	     -3.51987115	     -9.74701586	     25.67480606	     25.67480606	     19.99868203	    -15.76039299	      4.25540202	    -10.06295585	      7.53206059	      0.59989075	    -16.63206075	    -11.96380683	    -11.74970745	     30.61074253	     46.68754141	      0.00000000	      0.00000000	     32.21396993	    -20.33724085	     -2.73698805	     64.75128518	     47.07728099	      0.00000000	      0.00000000
     43.06857143	     -4.43707982	     -4.50522519	    -14.00981944	      0.89393368	      0.92457508	      0.42417620	     25.25485684	     -1.35638429	     -3.55632984	     19.67046666	     19.67046666	      5.20223442	      9.85520788	      5.25089810	     10.64177444	     -3.56130845	    -10.31754088	     24.93908164	     24.93908164	     19.84353952	    -15.34778063	      3.38549814	    -10.12465878	      7.35717399	      0.39212148	    -16.46213348	    -11.74647534	    -11.48449168	     32.95093230	     46.54425166	      0.00000000	      0.00000000	     31.84708228	    -19.81099676	     -4.38556148	     66.99868980	     47.24670715	      0.00000000	      0.00000000
     43.09264286	     -4.57355748	     -4.38201360	    -14.28364988	      0.89402453	      0.92431138	      0.42803182	     25.14999472	     -1.18698278	     -3.27647672	     19.67352276	     19.67352276	      4.82706887	     10.05439359	      4.67823624	     10.15534842	     -3.61339299	    -10.54775715	     24.51820374	     24.51820374	     19.93571457	    -15.30178266	      3.19237554	    -10.04200568	      7.23108129	      0.33761131	    -15.56534844	    -11.54547625	    -11.14137994	     33.79226749	     46.48105000	      0.00000000	      0.00000000	     31.97916686	    -19.36215457	     -4.77124708	     67.73431601	     47.29477895	      0.00000000	      0.00000000
